<svg xmlns="http://www.w3.org/2000/svg" width="192" height="192" viewBox="0 0 192 192">
  <defs>
    <radialGradient id="demon-aura" cx="50%" cy="48%" r="62%">
      <stop offset="0" stop-color="#ffcb55" stop-opacity=".28"/>
      <stop offset=".58" stop-color="#ff3c2f" stop-opacity=".16"/>
      <stop offset="1" stop-color="#1d0202" stop-opacity="0"/>
    </radialGradient>
    <radialGradient id="demon-body" cx="37%" cy="27%" r="72%">
      <stop offset="0" stop-color="#ff7c50"/>
      <stop offset=".52" stop-color="#d31632"/>
      <stop offset="1" stop-color="#57070d"/>
    </radialGradient>
    <filter id="demon-eye" x="-80%" y="-80%" width="260%" height="260%">
      <feGaussianBlur stdDeviation="1.8" result="blur"/>
      <feMerge>
        <feMergeNode in="blur"/>
        <feMergeNode in="SourceGraphic"/>
      </feMerge>
    </filter>
    <g id="demon">
      <ellipse cx="0" cy="25" rx="22" ry="6" fill="#060101" opacity=".45"/>
      <circle cx="0" cy="1" r="30" fill="url(#demon-aura)"/>
      <path d="M-14-19 L-25-39 L-4-24 M14-19 L25-39 L4-24" fill="#50060b" stroke="#170103" stroke-width="2.4"/>
      <circle cx="0" cy="1" r="24" fill="url(#demon-body)" stroke="#170103" stroke-width="3"/>
      <path d="M-25 2 L-37 9 M25 2 L37 9" stroke="#7b0e16" stroke-width="5" stroke-linecap="round"/>
      <circle cx="-8" cy="-4" r="4" fill="#ffd94a" filter="url(#demon-eye)"/>
      <circle cx="8" cy="-4" r="4" fill="#ffd94a" filter="url(#demon-eye)"/>
      <path d="M-10 10 C-3 17 5 17 12 10" fill="none" stroke="#310305" stroke-width="3" stroke-linecap="round"/>
      <path d="M-5 11 L-2 17 M5 11 L2 17" stroke="#ffdca3" stroke-width="1.4" stroke-linecap="round"/>
    </g>
  </defs>
  <g transform="translate(48 48)"><use href="#demon"/></g>
  <g transform="translate(144 48) rotate(-5)"><use href="#demon" transform="translate(-2 1)"/></g>
  <g transform="translate(48 144) scale(1.04)"><use href="#demon" transform="translate(0 -1)"/></g>
  <g transform="translate(144 144) rotate(5)"><use href="#demon" transform="translate(2 1)"/></g>
</svg>
